<svg width="158" height="127" viewBox="0 0 158 127" fill="none" xmlns="http://www.w3.org/2000/svg">
<path fill-rule="evenodd" clip-rule="evenodd" d="M135.686 47.8316C139.561 46.1552 142.5 43.3155 145.257 40.4657C148.399 37.2171 148.44 33.1455 148.44 31.0144C148.44 27.6261 145.221 24.9541 139.987 24.8296C137.215 24.7636 135.522 25.4468 133.212 27.1105C131.558 28.2992 127.681 32.1904 129.41 35.373C129.5 35.5381 129.646 35.7388 129.854 35.975C130.059 36.2102 130.174 36.5093 130.177 36.8197C130.181 37.13 130.074 37.4318 129.875 37.6717C129.675 37.9117 129.389 38.0653 129.077 38.0999C128.764 38.1346 128.451 38.0475 128.202 37.8571L127.93 37.6488C124.513 35.0682 122.653 34.1081 122.653 30.2855C122.653 23.0923 132.254 16.181 141.526 16.402C150.788 16.623 158 23.2345 158 30.9433C158 35.1597 155.282 41.1413 150.837 45.7387C147.995 48.6791 144.564 51.001 140.763 52.5559C141.005 52.9496 141.254 53.3738 141.508 53.8336C144.026 58.3699 143.697 58.9211 144.018 64.5878C144.337 70.257 142.641 80.3915 143.291 85.3851C143.944 90.3761 147.204 90.9324 147.921 94.529C148.376 96.8073 149.504 106.698 151.305 124.196C151.342 124.55 151.303 124.908 151.191 125.246C151.08 125.585 150.897 125.896 150.656 126.161C150.415 126.425 150.12 126.636 149.791 126.781C149.462 126.925 149.106 127 148.746 127H143.461C142.781 127 142.129 126.733 141.648 126.258C141.167 125.782 140.897 125.137 140.897 124.465V123.203C140.897 122.403 141.277 121.648 141.924 121.171L142.741 120.564C143.126 120.279 143.422 119.893 143.596 119.451C143.77 119.008 143.815 118.526 143.725 118.059C142.32 110.663 141.084 106.21 140.021 104.702C139.234 103.584 135.684 101.763 131.105 98.2323C130.286 97.5973 128.811 96.2511 126.686 94.1886C126.515 94.0215 126.3 93.9052 126.066 93.8529C125.831 93.8005 125.587 93.8143 125.36 93.8927C125.133 93.971 124.933 94.1107 124.782 94.2959C124.631 94.4812 124.536 94.7045 124.508 94.9405C124.122 97.9961 123.639 100.572 123.066 102.667C122.373 105.192 120.24 111.778 116.672 122.42C116.502 122.928 116.175 123.369 115.736 123.682C115.298 123.995 114.771 124.163 114.231 124.163H107.505C106.896 124.162 106.312 123.923 105.881 123.497C105.451 123.071 105.208 122.494 105.208 121.892V121.74C105.207 121.144 105.418 120.568 105.803 120.111C106.189 119.653 106.725 119.344 107.317 119.238L110.202 118.715C112.273 111.237 113.175 105.761 112.913 102.284C112.728 99.8248 111.048 96.9648 109.354 91.9865C109.003 90.9502 108.507 88.8369 107.869 85.6365C107.836 85.4665 107.767 85.3052 107.667 85.1624C107.568 85.0197 107.44 84.8985 107.292 84.8064C107.143 84.7143 106.977 84.6533 106.804 84.627C106.631 84.6007 106.454 84.6098 106.284 84.6536L89.1656 89.0376C88.9772 89.0856 88.8023 89.1753 88.6541 89.2999C88.506 89.4245 88.3883 89.5808 88.3101 89.7569C88.232 89.933 88.1953 90.1244 88.2028 90.3166C88.2104 90.5088 88.262 90.6968 88.3537 90.8664L88.7571 91.6182C89.5279 93.0456 89.9287 94.6408 89.9287 96.2587V120.033C89.9287 120.823 89.5561 121.57 88.9215 122.052L85.3323 124.77C84.8828 125.111 84.3318 125.296 83.7651 125.296H81.1882C80.5066 125.295 79.8531 125.027 79.3713 124.55C78.8896 124.073 78.619 123.427 78.619 122.753V121.458C78.619 120.536 79.12 119.685 79.9344 119.235L81.7842 118.214C82.2164 117.976 82.5699 117.62 82.8023 117.189C83.0348 116.757 83.1362 116.268 83.0945 115.781C82.8017 112.349 82.442 109.738 82.0103 107.95C81.5684 106.106 80.4945 102.814 78.7911 98.0799C78.721 97.885 78.6039 97.71 78.4499 97.5701C78.2958 97.4302 78.1096 97.3296 77.9073 97.277C77.7049 97.2244 77.4927 97.2215 77.289 97.2685C77.0853 97.3154 76.8962 97.4109 76.7383 97.5465L76.2373 97.9732C74.981 99.0476 73.4471 99.7512 71.808 100.013L55.7453 102.553C55.5166 102.589 55.3022 102.686 55.1245 102.832C54.9468 102.979 54.8126 103.171 54.736 103.387C54.6594 103.603 54.6433 103.835 54.6893 104.059C54.7354 104.284 54.8419 104.492 54.9976 104.661L56.7061 106.52C57.1378 106.988 57.3741 107.597 57.3741 108.23V109.891C57.3739 110.231 57.3048 110.567 57.1707 110.88C57.0367 111.193 56.8405 111.477 56.5938 111.713C56.3471 111.95 56.0548 112.136 55.7343 112.259C55.4138 112.382 55.0716 112.441 54.7278 112.431L52.6211 112.37C52.238 112.359 51.8622 112.263 51.5212 112.09C51.1803 111.917 50.8828 111.67 50.6505 111.369L47.9939 107.93C47.6523 107.487 47.4672 106.945 47.4672 106.388V101.339C47.4672 100.457 47.9297 99.6369 48.6876 99.1746C59.6607 92.4691 65.611 88.7633 66.5385 88.0495C67.4994 87.3129 67.9002 86.081 67.7409 84.3564C65.9527 79.1063 63.0881 77.247 61.8009 74.1381C60.5163 71.0317 58.1269 61.362 56.9451 57.6486C54.5686 50.1811 52.4824 46.2314 51.9197 45.0503C50.6556 42.3986 48.4256 42.0227 46.0696 41.1083C43.7136 40.1914 39.2355 40.3311 36.322 37.8038C33.4111 35.274 33.6783 32.6324 33 29.7572V26.2393C33 24.8347 34.1536 23.6968 35.5744 23.6968H42.5523C43.4952 23.6968 44.3611 23.1888 44.8132 22.3684C45.6097 20.9231 46.8815 19.5414 48.6311 18.2257C50.9599 16.4859 53.6132 15.2179 56.4389 14.4945C55.7966 6.58498 55.7966 2.11717 56.4389 1.09102C57.0812 0.0648713 58.8669 1.67013 61.8009 5.90681C62.2197 0.918302 63.0367 -0.910478 64.2545 0.420468C65.3901 1.66505 67.3504 6.18621 70.1329 13.9839C70.4977 14.9999 71.0244 15.96 71.6924 16.816C72.8614 18.3095 73.9147 20.0976 74.8576 22.1753C76.6484 26.1275 78.7397 36.45 82.442 41.5274C86.1416 46.6048 88.3023 47.0213 93.6463 47.9611C97.197 48.586 109.439 46.5896 119.467 46.2035C127.19 45.9038 133.402 47.189 134.523 47.4735C134.926 47.5776 135.311 47.6944 135.686 47.8316Z" fill="#7259A6"/>
<path fill-rule="evenodd" clip-rule="evenodd" d="M21.6161 57.9447C12.0857 56.1042 5.90855 48.8143 6.15499 43.2908C6.55091 34.3737 12.5281 29.8922 25.4137 29.8357H25.5793C26.2716 29.8369 26.94 29.5627 27.456 29.0656C27.972 28.5685 28.2993 27.8836 28.375 27.1425C28.4112 26.7917 28.3806 26.4367 28.2852 26.0991C28.1898 25.7615 28.0315 25.4483 27.82 25.1788C27.6084 24.9093 27.3481 24.689 27.0549 24.5314C26.7617 24.3738 26.4418 24.2822 26.1146 24.2622L25.646 24.2317C21.812 23.9707 17.574 23.8184 15.2874 24.4014C5.75301 26.8357 0.460607 33.0271 0.0162075 42.9732C-0.337292 50.8832 5.12681 58.6147 12.8169 64.7277C12.891 64.7867 12.9658 64.8448 13.0412 64.9018C11.5524 67.7081 10.601 70.8407 10.1829 74.3041C8.73251 84.3285 10.0819 90.5634 9.04762 94.6924C8.01136 98.8236 3.29871 101.088 1.43829 105.702C-0.420108 110.314 -0.0767145 112.337 0.468685 115.97C0.789865 118.124 1.51707 121.274 2.64625 125.416C2.77106 125.873 3.02998 126.275 3.38429 126.56C3.73859 126.846 4.16921 127 4.61171 127H11.4211C12.5523 127 13.4694 126.012 13.4694 124.794V123.685C13.4694 123.393 13.4157 123.104 13.3114 122.835C13.2071 122.566 13.0542 122.321 12.8616 122.116C12.6691 121.911 12.4407 121.749 12.1896 121.64C11.9385 121.53 11.6698 121.476 11.3989 121.479C10.4798 121.492 9.69604 121.231 9.04762 120.696C7.40941 119.347 7.27407 118.594 7.27407 115.97C7.27407 114.221 7.8639 112.461 9.04762 110.691C13.7946 107.367 17.7639 104.769 21.2666 102.859C21.6262 106.692 22.3372 110.177 23.3937 113.314C24.5047 116.612 26.4358 120.809 29.185 125.901C29.3651 126.236 29.6235 126.513 29.9344 126.706C30.2453 126.899 30.5978 127 30.9565 127H36.3459C37.4569 127 38.3659 126.047 38.3922 124.851L38.4164 123.85C38.4307 123.273 38.2344 122.713 37.8696 122.29C37.5048 121.867 37.0005 121.615 36.4651 121.587L33.6472 121.444C32.8149 121.4 32.0898 120.82 31.813 119.973C30.8798 117.119 30.496 114.315 30.6616 111.559C30.8515 108.45 31.811 104.212 33.5421 98.841C40.7333 98.7714 55.3218 102.132 58.681 102.433C59.4729 102.504 60.2869 102.498 61.1212 102.42C61.795 104.707 62.2174 107.071 62.3796 109.464C62.5877 112.359 62.6059 117.452 62.4362 124.74C62.4295 125.034 62.4775 125.327 62.5774 125.601C62.6773 125.875 62.8271 126.124 63.018 126.335C63.2089 126.545 63.4369 126.713 63.6888 126.827C63.9407 126.941 64.2112 127 64.4845 127H70.0819C71.2131 127 72.1302 126.012 72.1302 124.794V123.28C72.1302 122.062 71.2131 121.074 70.0819 121.074H69.2194C68.8996 121.074 68.5845 120.991 68.3009 120.832C68.0174 120.673 67.7736 120.442 67.5904 120.16C67.4072 119.877 67.29 119.552 67.2486 119.21C67.2073 118.869 67.243 118.522 67.3529 118.198C68.4139 115.108 69.2388 111.929 69.8193 108.694L76.5499 125.662C76.8731 126.474 77.6145 127 78.4346 127H85.8682C86.9994 127 87.9185 126.012 87.9185 124.794V123.667C87.9185 122.597 87.2054 121.681 86.2277 121.496L82.6887 120.82C82.2443 120.733 81.8363 120.493 81.5313 120.132C80.093 118.429 79.1679 116.305 78.7517 113.765C77.7256 107.497 77.0751 106.818 78.7517 100.792C79.2971 98.8236 83.3008 96.9048 85.8621 88.1834C87.5044 82.6012 88.9588 73.1184 90.2294 59.7351C90.2751 59.2524 90.4673 58.7994 90.7762 58.4462C91.0851 58.093 91.4936 57.8594 91.9383 57.7815L95.8732 57.0963C96.4792 56.9897 97.0105 56.5959 97.3196 56.0238L100.434 50.2284C100.461 50.1786 100.489 50.13 100.519 50.0826C100.824 49.6322 100.992 49.0911 101 48.5337C101 48.1073 100.897 47.6678 100.691 47.2132C100.582 46.9739 100.434 46.7563 100.253 46.5736L96.1823 42.4555C95.8995 42.1661 95.6955 41.7963 95.5985 41.3895L95.3682 40.404C95.1622 39.5273 94.7097 38.7376 94.0754 38.1459C92.8513 37.0103 91.9484 36.2489 91.3646 35.8617C90.6374 35.3809 89.1264 34.8022 86.8358 34.13C87.9993 32.3766 88.6376 30.8429 88.7507 29.5268C88.9224 27.5536 89.0679 25.6001 88.3265 25.5239C87.8296 25.4739 86.5732 26.9445 84.5552 29.9358C84.7127 26.157 84.3592 24.4862 83.4906 24.9279C82.622 25.3673 80.7192 27.9148 77.7741 32.5702L74.9016 36.0945C73.5063 37.8061 72.4798 39.829 71.8959 42.0182C70.4455 47.4568 69.0638 51.3705 67.7549 53.7635C65.4137 58.0317 62.5433 63.2876 53.2149 62.5088C43.8886 61.7321 40.7515 59.6981 34.538 58.6452C31.3577 58.1228 28.1532 57.788 24.939 57.6423C23.8238 57.5867 22.7067 57.6883 21.6161 57.9447Z" fill="#FE9F5E"/>
</svg>
