<svg width="50" height="48" viewBox="0 0 50 48" fill="none" xmlns="http://www.w3.org/2000/svg">
<path fill-rule="evenodd" clip-rule="evenodd" d="M10.701 15.7426C5.983 14.8966 2.925 11.5456 3.047 9.00655C3.243 4.90755 6.202 2.84755 12.581 2.82155H12.663C13.0057 2.82213 13.3366 2.69606 13.592 2.46756C13.8475 2.23906 14.0095 1.92423 14.047 1.58355C14.0649 1.42232 14.0498 1.25913 14.0026 1.10394C13.9553 0.948743 13.877 0.804804 13.7722 0.680903C13.6675 0.557003 13.5387 0.455742 13.3935 0.383298C13.2484 0.310855 13.09 0.26875 12.928 0.259553L12.696 0.245554C10.798 0.125554 8.7 0.0555536 7.568 0.323554C2.848 1.44255 0.227999 4.28855 0.00799942 8.86055C-0.167001 12.4966 2.538 16.0506 6.345 18.8606C6.38167 18.8877 6.41867 18.9143 6.456 18.9406C5.719 20.2306 5.248 21.6706 5.041 23.2626C4.323 27.8706 4.991 30.7366 4.479 32.6346C3.966 34.5336 1.633 35.5746 0.712002 37.6956C-0.207998 39.8156 -0.0380016 40.7456 0.231998 42.4156C0.390998 43.4056 0.751001 44.8536 1.31 46.7576C1.37179 46.9677 1.49997 47.1522 1.67537 47.2835C1.85076 47.4147 2.06394 47.4856 2.283 47.4856H5.654C6.214 47.4856 6.668 47.0316 6.668 46.4716V45.9616C6.66801 45.8275 6.64142 45.6947 6.58978 45.571C6.53813 45.4472 6.46245 45.3349 6.36713 45.2406C6.2718 45.1463 6.15872 45.0719 6.03442 45.0216C5.91012 44.9713 5.77708 44.9461 5.643 44.9476C5.188 44.9536 4.8 44.8336 4.479 44.5876C3.668 43.9676 3.601 43.6216 3.601 42.4156C3.601 41.6116 3.893 40.8026 4.479 39.9886C6.829 38.4606 8.794 37.2666 10.528 36.3886C10.706 38.1506 11.058 39.7526 11.581 41.1946C12.131 42.7106 13.087 44.6396 14.448 46.9806C14.5372 47.1342 14.6651 47.2617 14.819 47.3503C14.9729 47.4389 15.1474 47.4856 15.325 47.4856H17.993C18.543 47.4856 18.993 47.0476 19.006 46.4976L19.018 46.0376C19.0251 45.7723 18.9279 45.5148 18.7473 45.3203C18.5667 45.1259 18.3171 45.01 18.052 44.9976L16.657 44.9316C16.245 44.9116 15.886 44.6446 15.749 44.2556C15.287 42.9436 15.097 41.6546 15.179 40.3876C15.273 38.9586 15.748 37.0106 16.605 34.5416C20.165 34.5096 27.387 36.0546 29.05 36.1926C29.442 36.2256 29.845 36.2226 30.258 36.1866C30.5916 37.2378 30.8007 38.3246 30.881 39.4246C30.984 40.7556 30.993 43.0966 30.909 46.4466C30.9057 46.5818 30.9294 46.7164 30.9789 46.8423C31.0284 46.9682 31.1025 47.083 31.197 47.1798C31.2915 47.2766 31.4044 47.3535 31.5291 47.406C31.6538 47.4586 31.7877 47.4856 31.923 47.4856H34.694C35.254 47.4856 35.708 47.0316 35.708 46.4716V45.7756C35.708 45.2156 35.254 44.7616 34.694 44.7616H34.267C34.1087 44.7615 33.9527 44.7233 33.8123 44.6502C33.672 44.577 33.5513 44.471 33.4606 44.3413C33.3699 44.2115 33.3119 44.0618 33.2914 43.9048C33.2709 43.7478 33.2886 43.5882 33.343 43.4396C33.8683 42.0189 34.2766 40.5577 34.564 39.0706L37.896 46.8706C38.056 47.2436 38.423 47.4856 38.829 47.4856H42.509C43.069 47.4856 43.524 47.0316 43.524 46.4716V45.9536C43.524 45.4616 43.171 45.0406 42.687 44.9556L40.935 44.6446C40.715 44.6046 40.513 44.4946 40.362 44.3286C39.65 43.5456 39.192 42.5696 38.986 41.4016C38.478 38.5206 38.156 38.2086 38.986 35.4386C39.256 34.5336 41.238 33.6516 42.506 29.6426C43.319 27.0766 44.039 22.7176 44.668 16.5656C44.6906 16.3437 44.7858 16.1354 44.9387 15.9731C45.0917 15.8107 45.2939 15.7034 45.514 15.6676L47.462 15.3526C47.762 15.3036 48.025 15.1226 48.178 14.8596L49.72 12.1956C49.7331 12.1727 49.7471 12.1503 49.762 12.1286C49.913 11.9215 49.9961 11.6728 50 11.4166C50 11.2206 49.949 11.0186 49.847 10.8096C49.793 10.6996 49.72 10.5996 49.63 10.5156L47.615 8.62255C47.475 8.48955 47.374 8.31955 47.326 8.13255L47.212 7.67955C47.11 7.27655 46.886 6.91355 46.572 6.64155C45.966 6.11955 45.519 5.76955 45.23 5.59155C44.87 5.37055 44.122 5.10455 42.988 4.79555C43.564 3.98955 43.88 3.28455 43.936 2.67955C44.021 1.77255 44.093 0.874553 43.726 0.839553C43.48 0.816553 42.858 1.49255 41.859 2.86755C41.937 1.13055 41.762 0.362554 41.332 0.565554C40.902 0.767554 39.96 1.93855 38.502 4.07855L37.08 5.69855C36.3892 6.48537 35.8811 7.41525 35.592 8.42155C34.874 10.9216 34.19 12.7206 33.542 13.8206C32.383 15.7826 30.962 18.1986 26.344 17.8406C21.727 17.4836 20.174 16.5486 17.098 16.0646C15.5236 15.8244 13.9372 15.6706 12.346 15.6036C11.794 15.578 11.2409 15.6247 10.701 15.7426Z" fill="#FE9F5E"/>
</svg>
