<svg width="69" height="70" viewBox="0 0 69 70" fill="none" xmlns="http://www.w3.org/2000/svg">
<path fill-rule="evenodd" clip-rule="evenodd" d="M56.4854 26.2514C58.5858 25.3439 60.1792 23.8067 61.6738 22.2639C63.3772 20.5053 63.3995 18.3011 63.3995 17.1475C63.3995 15.3133 61.6543 13.8668 58.817 13.7994C57.3141 13.7636 56.3962 14.1335 55.1441 15.0341C54.2471 15.6776 52.1452 17.7841 53.0826 19.507C53.1314 19.5964 53.2108 19.705 53.3236 19.8329C53.4347 19.9602 53.4967 20.1221 53.4988 20.2901C53.5008 20.4582 53.4427 20.6215 53.3347 20.7514C53.2265 20.8813 53.0713 20.9645 52.902 20.9832C52.7327 21.002 52.5626 20.9548 52.428 20.8518L52.2803 20.739C50.4278 19.342 49.4194 18.8223 49.4194 16.7529C49.4194 12.8589 54.6245 9.11752 59.6513 9.23715C64.6726 9.35677 68.5823 12.9359 68.5823 17.109C68.5823 19.3915 67.1087 22.6296 64.6991 25.1184C63.1585 26.7102 61.2984 27.9671 59.2377 28.8089C59.3686 29.022 59.5037 29.2516 59.6416 29.5005C61.0066 31.9563 60.8283 32.2547 61.0024 35.3223C61.1751 38.3913 60.2558 43.8775 60.6082 46.5808C60.962 49.2826 62.7296 49.5838 63.1182 51.5308C63.3647 52.7641 63.9762 58.1184 64.9526 67.5908C64.9726 67.7825 64.9517 67.9762 64.8912 68.1594C64.8306 68.3427 64.7317 68.5113 64.6009 68.6544C64.4702 68.7975 64.3104 68.9119 64.132 68.9901C63.9536 69.0684 63.7605 69.1088 63.5653 69.1088H60.7002C60.3315 69.1088 59.9779 68.9642 59.7172 68.7069C59.4566 68.4495 59.3101 68.1005 59.3101 67.7365V67.0531C59.3101 66.62 59.5162 66.2116 59.8672 65.9531L60.3102 65.6245C60.5186 65.4704 60.6791 65.2616 60.7734 65.022C60.8676 64.7823 60.892 64.5214 60.8436 64.2688C60.0817 60.2648 59.4118 57.8544 58.8351 57.0376C58.4089 56.4326 56.484 55.4468 54.0019 53.5355C53.5576 53.1918 52.7581 52.463 51.6062 51.3465C51.5135 51.2561 51.397 51.1931 51.2699 51.1648C51.1427 51.1364 51.0101 51.1439 50.887 51.1863C50.764 51.2287 50.6554 51.3043 50.5738 51.4046C50.4921 51.5049 50.4406 51.6258 50.4251 51.7535C50.2161 53.4076 49.9543 54.8019 49.6437 55.9363C49.2676 57.303 48.1115 60.8684 46.1768 66.6297C46.0848 66.9043 45.9074 67.1433 45.6699 67.3126C45.4323 67.482 45.1467 67.5731 44.8536 67.5729H41.2071C40.877 67.5725 40.5605 67.4429 40.327 67.2125C40.0936 66.982 39.9623 66.6696 39.9619 66.3436V66.2611C39.9615 65.9389 40.0758 65.6267 40.2848 65.3792C40.4939 65.1317 40.7843 64.9645 41.1055 64.9068L42.6696 64.6235C43.7923 60.5755 44.2812 57.611 44.1391 55.7286C44.0388 54.3976 43.1279 52.8494 42.21 50.1544C42.0192 49.5934 41.7504 48.4494 41.4049 46.7169C41.3865 46.6249 41.3493 46.5375 41.2954 46.4602C41.2415 46.3829 41.1722 46.3174 41.0917 46.2675C41.0112 46.2177 40.9212 46.1846 40.8273 46.1704C40.7334 46.1561 40.6375 46.161 40.5455 46.1848L31.2649 48.558C31.1628 48.584 31.068 48.6326 30.9876 48.7C30.9073 48.7675 30.8435 48.8521 30.8012 48.9474C30.7588 49.0428 30.7389 49.1464 30.743 49.2504C30.7471 49.3545 30.775 49.4562 30.8248 49.548L31.0435 49.955C31.4613 50.7278 31.6786 51.5913 31.6786 52.4671V65.3371C31.6786 65.7648 31.4766 66.169 31.1326 66.4303L29.1868 67.9015C28.9431 68.0862 28.6444 68.1863 28.3371 68.1862H26.9401C26.5706 68.1858 26.2163 68.0406 25.9551 67.7825C25.6939 67.5245 25.5472 67.1746 25.5472 66.8098V66.1085C25.5472 65.6094 25.8189 65.1488 26.2604 64.9054L27.2632 64.3526C27.4975 64.2239 27.6892 64.0311 27.8152 63.7974C27.9412 63.5638 27.9962 63.2992 27.9736 63.0354C27.8148 61.1778 27.6198 59.7643 27.3858 58.7963C27.1462 57.798 26.564 56.016 25.6406 53.453C25.6026 53.3475 25.5391 53.2528 25.4556 53.1771C25.3721 53.1013 25.2711 53.0468 25.1614 53.0184C25.0517 52.9899 24.9367 52.9883 24.8262 53.0138C24.7158 53.0392 24.6133 53.0909 24.5277 53.1643L24.2561 53.3953C23.575 53.9769 22.7434 54.3578 21.8548 54.4994L13.1466 55.8744C13.0227 55.894 12.9064 55.9463 12.8101 56.0257C12.7138 56.1052 12.641 56.2089 12.5995 56.3258C12.558 56.4427 12.5492 56.5686 12.5742 56.69C12.5991 56.8114 12.6569 56.924 12.7413 57.0156L13.6676 58.0221C13.9016 58.2751 14.0297 58.6051 14.0297 58.9475V59.8468C14.0296 60.0308 13.9921 60.213 13.9194 60.3824C13.8468 60.5519 13.7404 60.7053 13.6067 60.8335C13.4729 60.9617 13.3145 61.0621 13.1407 61.1288C12.967 61.1955 12.7814 61.2271 12.5951 61.2218L11.4529 61.1888C11.2452 61.1828 11.0415 61.131 10.8566 61.0373C10.6718 60.9435 10.5105 60.8102 10.3846 60.647L8.94439 58.7853C8.75916 58.5455 8.65884 58.2522 8.65885 57.9506V55.2171C8.65885 54.74 8.90957 54.2959 9.32046 54.0456C15.2694 50.4156 18.4952 48.4095 18.998 48.0231C19.519 47.6244 19.7362 46.9575 19.6499 46.0239C18.6805 43.1818 17.1274 42.1753 16.4296 40.4923C15.7332 38.8106 14.4378 33.576 13.7971 31.5658C12.5087 27.5233 11.3777 25.3851 11.0727 24.7458C10.3874 23.3103 9.17839 23.1068 7.90114 22.6118C6.62389 22.1154 4.19614 22.191 2.61664 20.8229C1.03853 19.4534 1.18339 18.0234 0.815674 16.4669V14.5625C0.815674 13.8021 1.44107 13.1861 2.21132 13.1861H5.99432C6.50549 13.1861 6.97489 12.9111 7.22003 12.467C7.65182 11.6846 8.34128 10.9367 9.28982 10.2244C10.5523 9.28259 11.9908 8.59617 13.5227 8.20453C13.1745 3.92278 13.1745 1.50415 13.5227 0.94865C13.8709 0.39315 14.839 1.26215 16.4296 3.55565C16.6566 0.85515 17.0996 -0.13485 17.7598 0.58565C18.3754 1.2594 19.4382 3.7069 20.9466 7.92815C21.1444 8.47815 21.43 8.9979 21.7921 9.46127C22.4259 10.2698 22.9969 11.2378 23.5081 12.3625C24.4789 14.502 25.6127 20.09 27.6198 22.8387C29.6255 25.5873 30.7969 25.8128 33.6941 26.3215C35.619 26.6598 42.256 25.579 47.6923 25.37C51.8792 25.2078 55.2471 25.9035 55.8544 26.0575C56.0731 26.1139 56.282 26.1772 56.4854 26.2514Z" fill="#7259A6"/>
</svg>
