<svg width="163" height="29" viewBox="0 0 163 29" fill="none" xmlns="http://www.w3.org/2000/svg">
<path d="M6.56765 28.3707C5.31481 28.3707 4.19833 28.1534 3.21822 27.7188C2.2381 27.2756 1.46254 26.6236 0.891513 25.7628C0.329013 24.8935 0.0477628 23.8111 0.0477628 22.5156C0.0477628 21.4247 0.248047 20.5085 0.648615 19.767C1.04918 19.0256 1.59464 18.429 2.28498 17.9773C2.97532 17.5256 3.75941 17.1847 4.63725 16.9545C5.52362 16.7244 6.45259 16.5625 7.42418 16.4688C8.56623 16.3494 9.48668 16.2386 10.1855 16.1364C10.8844 16.0256 11.3915 15.8636 11.7069 15.6506C12.0222 15.4375 12.1799 15.1222 12.1799 14.7045V14.6278C12.1799 13.8182 11.9242 13.1918 11.4128 12.7486C10.91 12.3054 10.1941 12.0838 9.26509 12.0838C8.28498 12.0838 7.50515 12.3011 6.9256 12.7358C6.34606 13.1619 5.96254 13.6989 5.77504 14.3466L0.738104 13.9375C0.993786 12.7443 1.49663 11.7131 2.24663 10.8438C2.99663 9.96591 3.96396 9.29261 5.14862 8.82386C6.3418 8.34659 7.72248 8.10795 9.29066 8.10795C10.3816 8.10795 11.4256 8.2358 12.4228 8.49148C13.4284 8.74716 14.3191 9.14347 15.0946 9.6804C15.8787 10.2173 16.4966 10.9077 16.9483 11.7514C17.4 12.5866 17.6259 13.5881 17.6259 14.7557V28H12.4611V25.277H12.3077C11.9924 25.8906 11.5705 26.4318 11.0421 26.9006C10.5137 27.3608 9.87873 27.723 9.13725 27.9872C8.39577 28.2429 7.53924 28.3707 6.56765 28.3707ZM8.12731 24.6122C8.92845 24.6122 9.63583 24.4545 10.2495 24.1392C10.8631 23.8153 11.3446 23.3807 11.6941 22.8352C12.0435 22.2898 12.2182 21.6719 12.2182 20.9815V18.8977C12.0478 19.0085 11.8134 19.1108 11.5151 19.2045C11.2253 19.2898 10.8972 19.3707 10.5307 19.4474C10.1642 19.5156 9.79776 19.5795 9.43129 19.6392C9.06481 19.6903 8.73242 19.7372 8.43413 19.7798C7.79492 19.8736 7.23668 20.0227 6.75941 20.2273C6.28214 20.4318 5.9114 20.7088 5.6472 21.0582C5.38299 21.3991 5.25089 21.8253 5.25089 22.3366C5.25089 23.0781 5.51935 23.6449 6.05629 24.0369C6.60174 24.4205 7.29208 24.6122 8.12731 24.6122ZM29.0868 28.3196C27.5953 28.3196 26.2445 27.9361 25.0343 27.169C23.8326 26.3935 22.878 25.2557 22.1706 23.7557C21.4718 22.2472 21.1223 20.3977 21.1223 18.2074C21.1223 15.9574 21.4846 14.0866 22.209 12.5952C22.9334 11.0952 23.8965 9.97443 25.0982 9.23295C26.3084 8.48295 27.6337 8.10795 29.074 8.10795C30.1735 8.10795 31.0897 8.29545 31.8226 8.67045C32.5641 9.03693 33.1607 9.49716 33.6124 10.0511C34.0726 10.5966 34.4221 11.1335 34.6607 11.6619H34.8269V1.81818H40.2601V28H34.8908V24.8551H34.6607C34.405 25.4006 34.0428 25.9418 33.574 26.4787C33.1138 27.0071 32.513 27.446 31.7715 27.7955C31.0385 28.1449 30.1436 28.3196 29.0868 28.3196ZM30.8127 23.9858C31.6905 23.9858 32.432 23.7472 33.0371 23.2699C33.6507 22.7841 34.1195 22.1065 34.4434 21.2372C34.7757 20.3679 34.9419 19.3494 34.9419 18.1818C34.9419 17.0142 34.78 16 34.4561 15.1392C34.1323 14.2784 33.6635 13.6136 33.0499 13.1449C32.4363 12.6761 31.6905 12.4418 30.8127 12.4418C29.9178 12.4418 29.1635 12.6847 28.5499 13.1705C27.9363 13.6562 27.4718 14.3295 27.1564 15.1903C26.8411 16.0511 26.6834 17.0483 26.6834 18.1818C26.6834 19.3239 26.8411 20.3338 27.1564 21.2116C27.4803 22.081 27.9448 22.7628 28.5499 23.2571C29.1635 23.7429 29.9178 23.9858 30.8127 23.9858ZM53.6099 28.3835C51.6241 28.3835 49.9068 27.9616 48.4579 27.1179C47.0176 26.2656 45.9054 25.081 45.1213 23.5639C44.3372 22.0384 43.9451 20.2699 43.9451 18.2585C43.9451 16.2301 44.3372 14.4574 45.1213 12.9403C45.9054 11.4148 47.0176 10.2301 48.4579 9.38636C49.9068 8.53409 51.6241 8.10795 53.6099 8.10795C55.5957 8.10795 57.3088 8.53409 58.7491 9.38636C60.198 10.2301 61.3145 11.4148 62.0985 12.9403C62.8826 14.4574 63.2747 16.2301 63.2747 18.2585C63.2747 20.2699 62.8826 22.0384 62.0985 23.5639C61.3145 25.081 60.198 26.2656 58.7491 27.1179C57.3088 27.9616 55.5957 28.3835 53.6099 28.3835ZM53.6355 24.1648C54.5389 24.1648 55.2931 23.9091 55.8983 23.3977C56.5034 22.8778 56.9593 22.1705 57.2662 21.2756C57.5815 20.3807 57.7392 19.3622 57.7392 18.2202C57.7392 17.0781 57.5815 16.0597 57.2662 15.1648C56.9593 14.2699 56.5034 13.5625 55.8983 13.0426C55.2931 12.5227 54.5389 12.2628 53.6355 12.2628C52.7235 12.2628 51.9565 12.5227 51.3343 13.0426C50.7207 13.5625 50.2562 14.2699 49.9409 15.1648C49.6341 16.0597 49.4806 17.0781 49.4806 18.2202C49.4806 19.3622 49.6341 20.3807 49.9409 21.2756C50.2562 22.1705 50.7207 22.8778 51.3343 23.3977C51.9565 23.9091 52.7235 24.1648 53.6355 24.1648ZM77.2605 8.36364V12.4545H65.4352V8.36364H77.2605ZM68.1199 3.65909H73.5659V21.9659C73.5659 22.4687 73.6426 22.8608 73.796 23.142C73.9494 23.4148 74.1625 23.6065 74.4352 23.7173C74.7164 23.8281 75.0403 23.8835 75.4068 23.8835C75.6625 23.8835 75.9181 23.8622 76.1738 23.8196C76.4295 23.7685 76.6255 23.7301 76.7619 23.7045L77.6184 27.7571C77.3457 27.8423 76.9622 27.9403 76.4679 28.0511C75.9735 28.1705 75.3727 28.2429 74.6653 28.2685C73.3528 28.3196 72.2022 28.1449 71.2136 27.7443C70.2335 27.3437 69.4707 26.7216 68.9252 25.8778C68.3798 25.0341 68.1113 23.9687 68.1199 22.6818V3.65909ZM86.4075 28.3707C85.1547 28.3707 84.0382 28.1534 83.0581 27.7188C82.0779 27.2756 81.3024 26.6236 80.7314 25.7628C80.1689 24.8935 79.8876 23.8111 79.8876 22.5156C79.8876 21.4247 80.0879 20.5085 80.4885 19.767C80.889 19.0256 81.4345 18.429 82.1248 17.9773C82.8152 17.5256 83.5993 17.1847 84.4771 16.9545C85.3635 16.7244 86.2924 16.5625 87.264 16.4688C88.4061 16.3494 89.3265 16.2386 90.0254 16.1364C90.7243 16.0256 91.2314 15.8636 91.5467 15.6506C91.862 15.4375 92.0197 15.1222 92.0197 14.7045V14.6278C92.0197 13.8182 91.764 13.1918 91.2527 12.7486C90.7498 12.3054 90.0339 12.0838 89.1049 12.0838C88.1248 12.0838 87.345 12.3011 86.7654 12.7358C86.1859 13.1619 85.8024 13.6989 85.6149 14.3466L80.5779 13.9375C80.8336 12.7443 81.3365 11.7131 82.0865 10.8438C82.8365 9.96591 83.8038 9.29261 84.9885 8.82386C86.1816 8.34659 87.5623 8.10795 89.1305 8.10795C90.2214 8.10795 91.2654 8.2358 92.2626 8.49148C93.2683 8.74716 94.1589 9.14347 94.9345 9.6804C95.7186 10.2173 96.3365 10.9077 96.7882 11.7514C97.2399 12.5866 97.4657 13.5881 97.4657 14.7557V28H92.301V25.277H92.1476C91.8322 25.8906 91.4103 26.4318 90.8819 26.9006C90.3535 27.3608 89.7186 27.723 88.9771 27.9872C88.2356 28.2429 87.3791 28.3707 86.4075 28.3707ZM87.9672 24.6122C88.7683 24.6122 89.4757 24.4545 90.0893 24.1392C90.7029 23.8153 91.1845 23.3807 91.5339 22.8352C91.8833 22.2898 92.0581 21.6719 92.0581 20.9815V18.8977C91.8876 19.0085 91.6532 19.1108 91.3549 19.2045C91.0652 19.2898 90.737 19.3707 90.3706 19.4474C90.0041 19.5156 89.6376 19.5795 89.2711 19.6392C88.9047 19.6903 88.5723 19.7372 88.274 19.7798C87.6348 19.8736 87.0765 20.0227 86.5993 20.2273C86.122 20.4318 85.7512 20.7088 85.487 21.0582C85.2228 21.3991 85.0907 21.8253 85.0907 22.3366C85.0907 23.0781 85.3592 23.6449 85.8961 24.0369C86.4416 24.4205 87.1319 24.6122 87.9672 24.6122Z" fill="#593B9A"/>
<path d="M107.137 16.6477V28H101.691V8.36364H106.881V11.8281H107.111C107.546 10.6861 108.275 9.78267 109.297 9.1179C110.32 8.4446 111.56 8.10795 113.018 8.10795C114.381 8.10795 115.57 8.40625 116.584 9.00284C117.599 9.59943 118.387 10.4517 118.949 11.5597C119.512 12.6591 119.793 13.9716 119.793 15.4972V28H114.347V16.4688C114.356 15.267 114.049 14.3295 113.427 13.6562C112.805 12.9744 111.948 12.6335 110.857 12.6335C110.124 12.6335 109.476 12.7912 108.914 13.1065C108.36 13.4219 107.925 13.8821 107.61 14.4872C107.303 15.0838 107.145 15.804 107.137 16.6477ZM132.958 28.3835C130.972 28.3835 129.254 27.9616 127.806 27.1179C126.365 26.2656 125.253 25.081 124.469 23.5639C123.685 22.0384 123.293 20.2699 123.293 18.2585C123.293 16.2301 123.685 14.4574 124.469 12.9403C125.253 11.4148 126.365 10.2301 127.806 9.38636C129.254 8.53409 130.972 8.10795 132.958 8.10795C134.943 8.10795 136.656 8.53409 138.097 9.38636C139.546 10.2301 140.662 11.4148 141.446 12.9403C142.23 14.4574 142.622 16.2301 142.622 18.2585C142.622 20.2699 142.23 22.0384 141.446 23.5639C140.662 25.081 139.546 26.2656 138.097 27.1179C136.656 27.9616 134.943 28.3835 132.958 28.3835ZM132.983 24.1648C133.887 24.1648 134.641 23.9091 135.246 23.3977C135.851 22.8778 136.307 22.1705 136.614 21.2756C136.929 20.3807 137.087 19.3622 137.087 18.2202C137.087 17.0781 136.929 16.0597 136.614 15.1648C136.307 14.2699 135.851 13.5625 135.246 13.0426C134.641 12.5227 133.887 12.2628 132.983 12.2628C132.071 12.2628 131.304 12.5227 130.682 13.0426C130.068 13.5625 129.604 14.2699 129.289 15.1648C128.982 16.0597 128.828 17.0781 128.828 18.2202C128.828 19.3622 128.982 20.3807 129.289 21.2756C129.604 22.1705 130.068 22.8778 130.682 23.3977C131.304 23.9091 132.071 24.1648 132.983 24.1648ZM131.002 5.83239L133.712 0.015625H138.749L134.85 5.83239H131.002ZM162.502 13.9631L157.516 14.2699C157.431 13.8437 157.247 13.4602 156.966 13.1193C156.685 12.7699 156.314 12.4929 155.854 12.2884C155.402 12.0753 154.861 11.9688 154.23 11.9688C153.387 11.9688 152.675 12.1477 152.095 12.5057C151.516 12.8551 151.226 13.3239 151.226 13.9119C151.226 14.3807 151.414 14.777 151.789 15.1009C152.164 15.4247 152.807 15.6847 153.719 15.8807L157.273 16.5966C159.182 16.9886 160.605 17.6193 161.543 18.4886C162.48 19.358 162.949 20.5 162.949 21.9148C162.949 23.2017 162.57 24.331 161.811 25.3026C161.061 26.2741 160.03 27.0327 158.718 27.5781C157.414 28.1151 155.909 28.3835 154.205 28.3835C151.605 28.3835 149.534 27.8423 147.992 26.7599C146.458 25.669 145.558 24.1861 145.294 22.3111L150.651 22.0298C150.813 22.8224 151.205 23.4276 151.827 23.8452C152.449 24.2543 153.246 24.4588 154.218 24.4588C155.172 24.4588 155.939 24.2756 156.519 23.9091C157.107 23.5341 157.405 23.0526 157.414 22.4645C157.405 21.9702 157.196 21.5653 156.787 21.25C156.378 20.9261 155.747 20.679 154.895 20.5085L151.494 19.831C149.577 19.4474 148.149 18.7827 147.212 17.8366C146.283 16.8906 145.818 15.6847 145.818 14.2188C145.818 12.9574 146.159 11.8707 146.841 10.9588C147.531 10.0469 148.499 9.34375 149.743 8.84943C150.996 8.35511 152.462 8.10795 154.141 8.10795C156.621 8.10795 158.573 8.6321 159.996 9.6804C161.428 10.7287 162.263 12.1562 162.502 13.9631Z" fill="#FF9F23"/>
</svg>
